<svg width="42" height="36" viewBox="0 0 42 36" fill="none" xmlns="http://www.w3.org/2000/svg">
<path fill-rule="evenodd" clip-rule="evenodd" d="M0.811045 15.8026C3.08666 6.65618 11.3001 0.23584 20.7254 0.23584C30.1506 0.23584 38.3641 6.65618 40.6397 15.8026H38.8409C35.8064 15.7579 32.8342 16.6648 30.3415 18.3959C30.1976 18.5001 30.0475 18.5952 29.8918 18.6807H29.6819C29.5263 18.5952 29.3761 18.5001 29.2322 18.3959C24.0884 14.937 17.3623 14.937 12.2185 18.3959C12.0746 18.5001 11.9244 18.5952 11.7688 18.6807H11.5589C11.4033 18.5952 11.2531 18.5001 11.1092 18.3959C8.61658 16.6648 5.64432 15.7579 2.60985 15.8026H0.811045ZM35.603 25.2017C36.5264 24.4825 37.6709 24.1063 38.8409 24.1374H41.2543V19.3255H38.8409C36.7801 19.3006 34.7664 19.9421 33.0997 21.1543C31.1744 22.5737 28.5492 22.5737 26.624 21.1543C23.1238 18.7178 18.4768 18.7178 14.9767 21.1543C13.0514 22.5737 10.4262 22.5737 8.50095 21.1543C6.81366 19.9265 4.77111 19.2843 2.68479 19.3255H0.196442V24.1374H2.60984C3.77983 24.1063 4.9243 24.4825 5.8477 25.2017C9.3418 27.64 13.9859 27.64 17.48 25.2017C18.4046 24.4847 19.5482 24.1088 20.7179 24.1374C21.8882 24.1038 23.0335 24.4803 23.9557 25.2017C27.4559 27.6382 32.1029 27.6382 35.603 25.2017ZM38.8409 32.7414C37.6709 32.7103 36.5264 33.0865 35.603 33.8056C32.1029 36.2422 27.4559 36.2422 23.9557 33.8056C23.0335 33.0843 21.8882 32.7078 20.7179 32.7414C19.5482 32.7128 18.4046 33.0887 17.48 33.8056C13.9859 36.244 9.3418 36.244 5.8477 33.8056C4.9243 33.0865 3.77983 32.7103 2.60984 32.7414H0.196442V27.9295H2.68479C4.77111 27.8883 6.81366 28.5305 8.50095 29.7583C10.4262 31.1777 13.0514 31.1777 14.9767 29.7583C18.4768 27.3218 23.1238 27.3218 26.624 29.7583C28.5492 31.1777 31.1744 31.1777 33.0997 29.7583C34.7664 28.546 36.7801 27.9046 38.8409 27.9295H41.2543V32.7414H38.8409Z" fill="#F4ECE1"/>
</svg>
